<?xml version="1.0" encoding="UTF-8"?>
<!DOCTYPE svg PUBLIC "-//W3C//DTD SVG 1.1//EN" "http://www.w3.org/Graphics/SVG/1.1/DTD/svg11.dtd">
<svg xmlns="http://www.w3.org/2000/svg" version="1.1" width="1000px" height="1125px" style="shape-rendering:geometricPrecision; text-rendering:geometricPrecision; image-rendering:optimizeQuality; fill-rule:evenodd; clip-rule:evenodd" xmlns:xlink="http://www.w3.org/1999/xlink">
<g><path style="opacity:0.995" fill="#915dff" d="M 999.5,544.5 C 999.5,546.833 999.5,549.167 999.5,551.5C 995.885,554.939 992.051,558.273 988,561.5C 984.872,570.341 982.206,579.341 980,588.5C 979.375,597.541 978.375,606.541 977,615.5C 974.03,625.369 972.03,635.369 971,645.5C 977.47,649.636 982.97,654.803 987.5,661C 986.181,662.988 984.347,664.155 982,664.5C 977.808,662.742 973.642,660.909 969.5,659C 968.056,658.219 966.723,658.386 965.5,659.5C 963.025,667.424 960.858,675.424 959,683.5C 943.481,721.683 926.148,759.016 907,795.5C 904.752,798.328 902.752,801.328 901,804.5C 884.264,819.234 868.931,835.234 855,852.5C 844.968,860.64 835.968,869.64 828,879.5C 827.695,882.497 827.862,885.497 828.5,888.5C 828.487,893.999 825.82,895.832 820.5,894C 818.664,892.581 816.664,891.414 814.5,890.5C 809.66,893.419 804.994,896.586 800.5,900C 796.251,902.194 791.918,904.194 787.5,906C 784.797,909.038 781.797,911.705 778.5,914C 766.833,921.667 755.167,929.333 743.5,937C 741.879,939.166 741.045,941.666 741,944.5C 740.167,945.333 739.333,946.167 738.5,947C 734.498,947.359 730.498,947.192 726.5,946.5C 723.433,946.607 720.433,947.107 717.5,948C 706.911,951.961 696.911,956.961 687.5,963C 679.92,965.624 672.253,967.957 664.5,970C 657.672,974.915 650.672,979.581 643.5,984C 641.402,986.854 639.069,989.521 636.5,992C 628.778,991.567 624.112,995.067 622.5,1002.5C 623.502,1006.51 624.502,1010.51 625.5,1014.5C 624.962,1020.86 621.628,1023.03 615.5,1021C 610.527,1015.56 606.693,1009.39 604,1002.5C 599.518,997.115 594.018,995.615 587.5,998C 581.042,1002.75 573.708,1004.91 565.5,1004.5C 563.886,1007.59 564.386,1010.26 567,1012.5C 567.667,1017.17 567.667,1021.83 567,1026.5C 566.195,1030.31 563.861,1032.31 560,1032.5C 555.74,1031.79 551.906,1030.12 548.5,1027.5C 546.667,1023.5 544.833,1019.5 543,1015.5C 536.431,1018.47 529.597,1019.97 522.5,1020C 520.263,1017.97 518.763,1015.47 518,1012.5C 516.421,1010.96 514.587,1009.79 512.5,1009C 500.331,1007.37 488.664,1004.04 477.5,999C 473.863,998.283 470.196,997.783 466.5,997.5C 459.183,998.474 451.85,999.307 444.5,1000C 442.754,1000.47 441.087,1001.14 439.5,1002C 437.268,1004.73 434.601,1006.9 431.5,1008.5C 428.311,1005.81 426.145,1002.48 425,998.5C 422.599,999.602 420.099,999.769 417.5,999C 411.874,995.762 407.874,991.095 405.5,985C 399.96,983.446 394.294,982.446 388.5,982C 386.154,978.999 383.154,977.999 379.5,979C 383.229,983.612 385.396,988.778 386,994.5C 382.7,995.626 379.366,996.626 376,997.5C 375.667,1001.17 375.333,1004.83 375,1008.5C 372.387,1010.54 370.22,1013.04 368.5,1016C 374.482,1020.82 381.149,1024.32 388.5,1026.5C 391.68,1030.92 392.18,1035.59 390,1040.5C 384.38,1047.13 377.88,1052.63 370.5,1057C 366.961,1058.5 363.295,1058.84 359.5,1058C 357.274,1056.77 355.774,1054.94 355,1052.5C 354.333,1046.5 354.333,1040.5 355,1034.5C 356.44,1030.96 357.274,1027.29 357.5,1023.5C 352.733,1023.81 348.066,1023.31 343.5,1022C 342.02,1020.7 341.354,1019.03 341.5,1017C 342.422,1013.17 342.922,1009.34 343,1005.5C 337.839,1004.12 332.672,1002.62 327.5,1001C 330.333,999.512 332.999,997.845 335.5,996C 334.53,992.756 333.363,989.59 332,986.5C 329.667,984.167 327.333,981.833 325,979.5C 324.131,969.324 319.298,961.824 310.5,957C 302.726,955.806 295.06,954.14 287.5,952C 277.253,946.093 267.253,939.759 257.5,933C 249.144,925.642 241.144,917.976 233.5,910C 220.573,900.408 208.906,889.408 198.5,877C 196.5,875.667 194.5,874.333 192.5,873C 189.833,872.333 187.167,872.333 184.5,873C 178.941,875.363 173.441,877.863 168,880.5C 167.5,880.333 167,880.167 166.5,880C 167.748,876.818 166.748,874.485 163.5,873C 147.008,872.124 130.675,873.291 114.5,876.5C 114.895,879.686 115.895,882.686 117.5,885.5C 117,885.833 116.5,886.167 116,886.5C 108.96,886.421 102.627,888.421 97,892.5C 95.6871,891.427 94.1871,890.76 92.5,890.5C 89.8383,891.497 87.1716,892.497 84.5,893.5C 83.1667,892.5 83.1667,891.5 84.5,890.5C 87.8275,886.666 91.8275,883.832 96.5,882C 95.842,880.095 94.6753,878.595 93,877.5C 90.4634,880.372 87.6301,882.872 84.5,885C 79.5036,885.664 77.6703,883.498 79,878.5C 79.9533,876.545 81.2866,874.878 83,873.5C 84.5899,871.35 85.2566,869.017 85,866.5C 79,861.167 73,855.833 67,850.5C 63.6014,844.432 59.4347,838.932 54.5,834C 48.7232,830.714 43.3899,826.881 38.5,822.5C 31.1039,825.188 24.7706,829.355 19.5,835C 9.14796,836.293 7.81463,833.293 15.5,826C 17.5,825.667 19.5,825.333 21.5,825C 25.5133,820.322 29.5133,815.655 33.5,811C 29.0471,804.913 26.0471,798.247 24.5,791C 21.9248,792.175 19.0914,793.008 16,793.5C 11.8489,793.549 10.5156,791.549 12,787.5C 13.9032,784.719 16.2366,782.386 19,780.5C 19.6583,778.2 20.1583,775.867 20.5,773.5C 19.6208,770.188 19.4541,766.855 20,763.5C 26.5242,758.316 31.5242,751.983 35,744.5C 41.4333,738.905 46.9333,732.572 51.5,725.5C 54.1071,724.682 56.7737,724.182 59.5,724C 63.047,719.729 66.2137,715.229 69,710.5C 69.5,709 70,707.5 70.5,706C 69.1281,701.551 67.9614,697.051 67,692.5C 59.5066,686.98 59.84,681.98 68,677.5C 70.7035,673.389 72.2035,668.889 72.5,664C 70.4368,649.684 67.6035,635.517 64,621.5C 63.6667,616.5 63.3333,611.5 63,606.5C 61.2429,601.963 59.9095,597.296 59,592.5C 57.9542,590.91 56.7875,589.41 55.5,588C 47.9531,584.31 40.4531,580.476 33,576.5C 32,577.167 31,577.833 30,578.5C 25.5382,585.926 20.7048,593.092 15.5,600C 9.23336,603.941 3.90003,603.107 -0.5,597.5C -0.5,595.5 -0.5,593.5 -0.5,591.5C 4.11945,585.378 9.28612,579.712 15,574.5C 17.2147,571.404 18.8814,568.071 20,564.5C 18.2339,554.292 17.0672,543.959 16.5,533.5C 16.3055,520.75 18.4721,508.416 23,496.5C 35.7649,481.617 42.4316,464.284 43,444.5C 47.5885,434.402 51.5885,424.069 55,413.5C 64.5758,394.01 74.9091,375.01 86,356.5C 87.9434,347.689 90.9434,339.355 95,331.5C 94.6156,323.287 92.9489,315.287 90,307.5C 89.3333,302.5 89.3333,297.5 90,292.5C 92.2328,285.801 95.2328,279.468 99,273.5C 102.293,270.213 106.127,267.713 110.5,266C 119.61,262.778 128.943,260.445 138.5,259C 144.644,254.853 150.144,250.02 155,244.5C 161.955,235.21 169.288,226.21 177,217.5C 197.553,197.612 218.053,177.778 238.5,158C 243.253,155.542 247.753,152.708 252,149.5C 255.999,140.333 259.499,131 262.5,121.5C 264.624,120.851 266.624,120.017 268.5,119C 266.637,117.582 266.137,115.749 267,113.5C 268.128,110.793 269.628,108.293 271.5,106C 266.164,103.996 265.164,100.663 268.5,96C 270.365,94.6986 272.365,94.3653 274.5,95C 277.168,96.8716 279.502,99.0382 281.5,101.5C 289.381,99.5148 297.381,99.0148 305.5,100C 311.495,101.499 317.495,102.999 323.5,104.5C 332.938,101.281 342.271,97.7811 351.5,94C 368.963,90.9749 385.963,86.3083 402.5,80C 407.833,79 413.167,78 418.5,77C 424.248,74.2491 429.748,71.0825 435,67.5C 436.908,68.4543 438.908,69.121 441,69.5C 453.316,67.982 465.65,67.6487 478,68.5C 481.998,68.4175 485.831,67.5842 489.5,66C 501.833,65.3333 514.167,65.3333 526.5,66C 548.461,71.4264 570.794,74.0931 593.5,74C 601.608,76.7011 609.941,78.0345 618.5,78C 627.806,81.7431 637.473,84.0765 647.5,85C 654.83,89.4698 662.83,91.8031 671.5,92C 675.079,94.7543 679.079,96.7543 683.5,98C 693.092,99.7317 702.426,102.398 711.5,106C 717.237,111.536 723.904,115.536 731.5,118C 738.765,124.469 747.099,129.135 756.5,132C 764.69,138.93 773.69,144.596 783.5,149C 794.599,156.93 805.266,165.43 815.5,174.5C 816.962,177.13 818.629,179.63 820.5,182C 832.926,189.556 844.259,198.556 854.5,209C 857.583,210.139 860.583,211.472 863.5,213C 871,220.5 878.5,228 886,235.5C 894.63,256.77 905.297,276.77 918,295.5C 932.755,324.272 945.422,353.938 956,384.5C 958.523,396.07 961.857,407.404 966,418.5C 968.043,420.208 969.71,422.208 971,424.5C 972.547,447.838 974.88,471.171 978,494.5C 979.033,498.898 980.867,502.898 983.5,506.5C 987.783,511.955 992.283,517.288 997,522.5C 998.894,527.547 998.727,532.547 996.5,537.5C 996.714,540.252 997.714,542.586 999.5,544.5 Z M 272.5,100.5 C 275.018,101.759 274.852,103.093 272,104.5C 270.933,103.809 269.766,103.309 268.5,103C 269.858,102.066 271.192,101.232 272.5,100.5 Z M 280.5,107.5 C 282.628,106.371 284.961,106.204 287.5,107C 285.301,108.583 282.968,108.75 280.5,107.5 Z M 494.5,123.5 C 506.191,121.921 514.024,126.588 518,137.5C 520.797,141.299 523.964,144.799 527.5,148C 534.5,152.667 541.5,152.667 548.5,148C 554.135,143.367 559.468,138.367 564.5,133C 569.83,129.398 575.497,128.398 581.5,130C 584.238,132.204 584.905,134.871 583.5,138C 598.478,151.303 613.812,164.303 629.5,177C 641.085,183.379 653.252,188.212 666,191.5C 683.44,188.453 700.607,189.62 717.5,195C 724.833,198.333 732.167,201.667 739.5,205C 755.31,217.073 771.644,228.406 788.5,239C 817.292,267.103 841.459,298.603 861,333.5C 861.667,335.5 861.667,337.5 861,339.5C 856.377,350.849 855.044,362.516 857,374.5C 863.882,385.71 873.715,393.21 886.5,397C 888.041,398.579 889.208,400.413 890,402.5C 890.421,406.872 891.088,411.205 892,415.5C 910.736,466.535 917.736,519.202 913,573.5C 909.591,598.474 904.591,623.141 898,647.5C 896.143,654.209 893.476,660.543 890,666.5C 887.277,676.272 884.277,685.939 881,695.5C 867.985,722.871 853.985,749.538 839,775.5C 825.139,795.034 810.139,813.7 794,831.5C 785.35,839.82 775.85,846.986 765.5,853C 739.051,874.4 710.718,893.067 680.5,909C 673.101,911.203 666.101,914.203 659.5,918C 639.402,918.19 620.069,922.19 601.5,930C 595.833,930.667 590.167,930.667 584.5,930C 584,929.5 583.5,929 583,928.5C 581.785,923.949 581.119,919.282 581,914.5C 576.486,908.253 571.486,907.92 566,913.5C 565.828,916.826 565.995,920.159 566.5,923.5C 563.642,923.595 561.309,924.762 559.5,927C 557.5,927.667 555.5,927.667 553.5,927C 549.978,921.978 545.645,917.811 540.5,914.5C 538.948,916.793 537.615,919.293 536.5,922C 533.751,921.055 530.917,919.889 528,918.5C 524.32,919.513 521.987,921.847 521,925.5C 520.333,922.833 519.667,920.167 519,917.5C 516.847,915.556 514.347,915.056 511.5,916C 509.089,917.955 506.589,919.789 504,921.5C 495.25,918.215 486.25,916.881 477,917.5C 474.611,917.037 472.277,916.37 470,915.5C 466.667,917.5 463.333,919.5 460,921.5C 452.791,919.298 445.458,917.632 438,916.5C 434.486,918.456 430.652,919.789 426.5,920.5C 424.133,920.158 421.8,919.658 419.5,919C 417.595,917.13 415.428,915.63 413,914.5C 411.381,921.167 407.214,923.333 400.5,921C 398.005,918.165 395.005,917.665 391.5,919.5C 379.869,917.457 368.535,914.29 357.5,910C 338.64,901.735 320.306,892.735 302.5,883C 296.183,877.841 289.516,873.174 282.5,869C 268.226,854.049 252.226,841.382 234.5,831C 223.393,821.564 212.56,811.731 202,801.5C 197.091,793.921 191.425,786.921 185,780.5C 174.256,766.016 164.256,751.016 155,735.5C 130.347,692.879 114.014,647.212 106,598.5C 103.807,570.188 102.473,541.855 102,513.5C 102.778,498.795 103.778,484.129 105,469.5C 109.54,455.215 114.874,441.215 121,427.5C 131.667,412.841 141.333,397.508 150,381.5C 159.221,372.635 170.055,366.469 182.5,363C 203.027,352.105 213.194,334.938 213,311.5C 214.287,293.829 213.121,276.329 209.5,259C 209.928,251.182 214.095,248.015 222,249.5C 241.393,252.356 260.893,253.189 280.5,252C 292.001,245.263 304.001,244.096 316.5,248.5C 319.751,248.109 322.751,246.942 325.5,245C 330.5,244.333 335.5,244.333 340.5,245C 346.087,248.71 351.587,252.543 357,256.5C 359.706,263.422 363.54,269.589 368.5,275C 372.11,276.944 375.443,279.277 378.5,282C 385.922,283.193 392.755,281.693 399,277.5C 403.616,263.37 407.449,249.037 410.5,234.5C 405.952,234.199 402.785,236.199 401,240.5C 399.055,249.781 397.388,259.115 396,268.5C 395.211,271.834 394.044,275.001 392.5,278C 386.817,276.899 381.984,274.066 378,269.5C 377.303,265.072 375.637,261.072 373,257.5C 371.199,253.309 370.533,248.975 371,244.5C 374.877,243.058 378.544,241.058 382,238.5C 384.153,224.177 389.153,210.843 397,198.5C 400.246,194.523 404.413,192.023 409.5,191C 412,188.5 414.5,186 417,183.5C 422.405,174.282 427.238,164.782 431.5,155C 432.5,154.333 433.5,154.333 434.5,155C 436.5,156.333 438.5,157.667 440.5,159C 442.167,159.667 443.833,159.667 445.5,159C 449.647,154.522 454.147,150.355 459,146.5C 463.045,140.91 467.212,135.41 471.5,130C 474.215,128.092 477.215,126.759 480.5,126C 485.389,125.646 490.056,124.813 494.5,123.5 Z"/></g>
<g><path style="opacity:0.995" fill="#915dff" d="M 229.5,347.5 C 419.5,347.5 609.5,347.5 799.5,347.5C 791.372,400.011 778.539,451.344 761,501.5C 759.262,502.127 757.429,502.46 755.5,502.5C 728.178,500.599 700.845,498.932 673.5,497.5C 676.121,484.959 676.954,472.292 676,459.5C 673.734,436.246 661.9,420.08 640.5,411C 628.286,406.184 615.619,404.017 602.5,404.5C 592.874,464.174 586.041,524.174 582,584.5C 579.89,648.61 581.724,712.61 587.5,776.5C 524.929,776.831 462.429,776.498 400,775.5C 383.795,697.657 374.462,618.99 372,539.5C 371.492,494.494 371.492,449.494 372,404.5C 323.915,419.923 294.749,452.423 284.5,502C 256.168,500.794 227.835,499.294 199.5,497.5C 209.37,447.482 219.37,397.482 229.5,347.5 Z"/></g>
</svg>
