<?xml version="1.0" encoding="UTF-8"?>
<!DOCTYPE svg PUBLIC "-//W3C//DTD SVG 1.1//EN" "http://www.w3.org/Graphics/SVG/1.1/DTD/svg11.dtd">
<svg xmlns="http://www.w3.org/2000/svg" version="1.1" width="2000px" height="2250px" style="shape-rendering:geometricPrecision; text-rendering:geometricPrecision; image-rendering:optimizeQuality; fill-rule:evenodd; clip-rule:evenodd" xmlns:xlink="http://www.w3.org/1999/xlink">
<g><path style="opacity:0.997" fill="#ee3d37" d="M -0.5,1043.5 C -0.5,1040.83 -0.5,1038.17 -0.5,1035.5C 2.96034,1020.76 5.79367,1005.76 8,990.5C 13.9091,948.045 20.5758,905.712 28,863.5C 36.342,813.136 53.0087,765.802 78,721.5C 95.7926,694.021 116.959,669.188 141.5,647C 174.656,618.511 205.822,588.011 235,555.5C 240.341,548.826 244.675,541.493 248,533.5C 252.667,520.167 257.333,506.833 262,493.5C 264.577,487.34 267.91,481.673 272,476.5C 323.647,423.183 376.813,371.683 431.5,322C 439.877,314.621 448.544,307.621 457.5,301C 466.943,295.598 477.109,293.098 488,293.5C 504.994,294.907 521.994,296.24 539,297.5C 546.557,297.368 554.057,296.701 561.5,295.5C 572.019,260.468 593.686,234.635 626.5,218C 647.732,208.08 669.732,205.913 692.5,211.5C 695.912,210.98 699.245,210.147 702.5,209C 710.18,204.494 717.513,199.494 724.5,194C 738.167,181 751.833,168 765.5,155C 770.891,149.98 777.225,147.98 784.5,149C 786.049,150.214 787.215,151.714 788,153.5C 788.364,166.537 788.031,179.537 787,192.5C 810.974,174.42 836.808,159.253 864.5,147C 904.665,130.222 945.331,114.722 986.5,100.5C 994.15,102.992 1001.48,106.159 1008.5,110C 1017.46,116.621 1026.12,123.621 1034.5,131C 1045,138.896 1056.34,140.396 1068.5,135.5C 1068.38,145.182 1068.71,154.848 1069.5,164.5C 1070.35,178.462 1066.85,191.128 1059,202.5C 1051.2,209.48 1042.03,213.313 1031.5,214C 930.695,206.3 834.362,223.3 742.5,265C 725.555,272.806 708.888,281.139 692.5,290C 635.336,323.081 578.336,356.414 521.5,390C 511.884,396.615 502.55,403.615 493.5,411C 460.134,442.7 426.468,474.034 392.5,505C 346.028,549.106 305.195,597.606 270,650.5C 230.773,713.504 205.773,781.837 195,855.5C 186.292,936.535 177.292,1017.54 168,1098.5C 166.732,1103.64 165.066,1108.64 163,1113.5C 157.045,1125.08 151.378,1136.74 146,1148.5C 143.67,1155.32 142.17,1162.32 141.5,1169.5C 149.041,1220.12 155.874,1270.78 162,1321.5C 156.428,1314.3 149.595,1312.47 141.5,1316C 136.486,1321.55 134.652,1328.05 136,1335.5C 138.455,1344.93 143.289,1352.77 150.5,1359C 158.208,1359.98 163.874,1356.98 167.5,1350C 168.332,1349.31 168.998,1349.48 169.5,1350.5C 185.161,1385.49 199.994,1420.82 214,1456.5C 222.872,1478.6 234.539,1498.93 249,1517.5C 291.402,1564.9 335.569,1610.74 381.5,1655C 427.5,1697.67 473.5,1740.33 519.5,1783C 538.805,1801.3 557.805,1819.97 576.5,1839C 578.034,1839.92 579.701,1840.42 581.5,1840.5C 592.965,1838.57 604.298,1836.07 615.5,1833C 619.165,1831.5 622.498,1829.5 625.5,1827C 627.389,1824.04 629.389,1821.21 631.5,1818.5C 635.207,1826.32 634.707,1833.99 630,1841.5C 624.909,1848.46 618.409,1853.63 610.5,1857C 650.645,1883.5 694.312,1901.83 741.5,1912C 793.252,1917.14 844.918,1923.14 896.5,1930C 941.423,1937.12 985.923,1946.28 1030,1957.5C 1072.85,1946.29 1116.35,1939.12 1160.5,1936C 1163.43,1934.73 1166.1,1933.06 1168.5,1931C 1175.49,1921.5 1184.16,1914 1194.5,1908.5C 1196.1,1898.81 1197.77,1889.14 1199.5,1879.5C 1201.84,1883.21 1204.84,1886.21 1208.5,1888.5C 1209.09,1888.29 1209.59,1887.96 1210,1887.5C 1210.69,1882.11 1210.36,1876.78 1209,1871.5C 1206.87,1864.95 1204.54,1858.61 1202,1852.5C 1215.61,1864.76 1226.94,1878.76 1236,1894.5C 1239.28,1887.11 1244.11,1880.95 1250.5,1876C 1256.83,1875.66 1260,1878.83 1260,1885.5C 1262.34,1875.66 1264.17,1865.66 1265.5,1855.5C 1267.47,1855.26 1269.3,1855.59 1271,1856.5C 1273.51,1861.54 1276.51,1866.2 1280,1870.5C 1281.26,1870.24 1282.26,1869.57 1283,1868.5C 1285.09,1862.54 1287.76,1856.88 1291,1851.5C 1294.33,1848.87 1298.17,1847.54 1302.5,1847.5C 1307.82,1848.26 1313.16,1848.93 1318.5,1849.5C 1322.56,1848.98 1326.56,1848.48 1330.5,1848C 1326.95,1854.77 1326.79,1861.6 1330,1868.5C 1331.65,1870.66 1333.81,1872 1336.5,1872.5C 1339.95,1871.27 1343.29,1869.77 1346.5,1868C 1354.06,1860.6 1362.06,1853.77 1370.5,1847.5C 1373.83,1854.65 1378.5,1860.82 1384.5,1866C 1389.78,1869.16 1395.44,1870.16 1401.5,1869C 1407.71,1867.23 1413.71,1864.89 1419.5,1862C 1549.64,1777.19 1675.31,1686.19 1796.5,1589C 1797.64,1588.25 1798.64,1588.42 1799.5,1589.5C 1798.18,1599.81 1797.35,1610.15 1797,1620.5C 1801.05,1606.63 1805.55,1592.96 1810.5,1579.5C 1817.91,1587.2 1825.91,1588.03 1834.5,1582C 1846.28,1565.22 1858.45,1548.72 1871,1532.5C 1884.3,1517.86 1898.8,1504.69 1914.5,1493C 1916.57,1491.13 1918.9,1490.13 1921.5,1490C 1888.63,1582.26 1844.13,1668.09 1788,1747.5C 1766.62,1775.57 1744.29,1802.9 1721,1829.5C 1721.08,1843.44 1717.75,1856.44 1711,1868.5C 1707.26,1873.58 1702.43,1877.08 1696.5,1879C 1684.88,1880.22 1673.21,1880.89 1661.5,1881C 1652.91,1882.21 1645.41,1885.71 1639,1891.5C 1637.09,1895.47 1637.09,1899.47 1639,1903.5C 1641.17,1907.17 1643.33,1910.83 1645.5,1914.5C 1645.17,1914.83 1644.83,1915.17 1644.5,1915.5C 1639.17,1911.5 1633.5,1908 1627.5,1905C 1618.15,1902.18 1608.81,1902.52 1599.5,1906C 1589.5,1909.33 1579.5,1912.67 1569.5,1916C 1565.86,1918.85 1565.69,1922.01 1569,1925.5C 1574.3,1931.8 1579.97,1937.8 1586,1943.5C 1593.56,1954.36 1598.06,1966.36 1599.5,1979.5C 1598.93,1982.18 1598.26,1984.84 1597.5,1987.5C 1586.47,1976.47 1575.8,1965.14 1565.5,1953.5C 1546.54,1964.76 1529.71,1978.76 1515,1995.5C 1500.43,2013.07 1484.77,2029.74 1468,2045.5C 1466.11,2048.62 1464.77,2051.95 1464,2055.5C 1463.41,2066.85 1463.57,2078.18 1464.5,2089.5C 1450.5,2088.74 1436.5,2088.58 1422.5,2089C 1412.12,2090.38 1405.95,2096.21 1404,2106.5C 1402.58,2118.5 1402.08,2130.5 1402.5,2142.5C 1394.03,2140.86 1386.86,2136.86 1381,2130.5C 1375.25,2122.08 1368.75,2114.25 1361.5,2107C 1358.27,2104.54 1354.61,2103.37 1350.5,2103.5C 1325.91,2106.98 1301.91,2112.82 1278.5,2121C 1274.92,2122.71 1271.42,2124.54 1268,2126.5C 1268.65,2130.78 1269.48,2135.11 1270.5,2139.5C 1269.22,2146.65 1264.89,2149.65 1257.5,2148.5C 1252.73,2148.48 1248.06,2147.82 1243.5,2146.5C 1242.83,2146.83 1242.17,2147.17 1241.5,2147.5C 1222.06,2134.95 1201.4,2124.78 1179.5,2117C 1157.67,2110.66 1136,2111.16 1114.5,2118.5C 1067.31,2104.91 1019.14,2098.58 970,2099.5C 953.153,2099.55 936.319,2100.05 919.5,2101C 880.402,2103.92 841.402,2107.75 802.5,2112.5C 802.43,2105.98 802.763,2099.48 803.5,2093C 803.548,2089.49 802.881,2086.16 801.5,2083C 800.833,2082.33 800.167,2082.33 799.5,2083C 797.671,2086.83 794.671,2089.16 790.5,2090C 786.833,2090.67 783.167,2090.67 779.5,2090C 758.833,2076 737.5,2063 715.5,2051C 680.519,2033.51 645.852,2015.51 611.5,1997C 561.191,2000.12 517.525,1984.79 480.5,1951C 467.56,1943.26 453.56,1938.93 438.5,1938C 353.183,1948.28 295.349,1913.45 265,1833.5C 257.296,1811.68 251.63,1789.35 248,1766.5C 242.268,1747.76 229.935,1736.43 211,1732.5C 197.907,1691.89 183.241,1651.89 167,1612.5C 134.333,1537.83 101.667,1463.17 69,1388.5C 64.9187,1377.84 62.252,1366.84 61,1355.5C 59.1108,1335.83 59.1108,1316.16 61,1296.5C 79.0505,1303.66 87.3839,1297.66 86,1278.5C 75.8283,1215.99 56.8283,1156.32 29,1099.5C 19.902,1080.3 10.0687,1061.63 -0.5,1043.5 Z M 158.5,1401.5 C 163.944,1403.1 168.11,1406.43 171,1411.5C 178.776,1426.83 185.776,1442.5 192,1458.5C 195.036,1465.52 198.87,1472.02 203.5,1478C 193.639,1475.14 185.472,1469.64 179,1461.5C 177.725,1459.28 176.725,1456.95 176,1454.5C 175.287,1445.31 173.62,1436.31 171,1427.5C 167.135,1418.93 162.635,1410.76 157.5,1403C 158.056,1402.62 158.389,1402.12 158.5,1401.5 Z M 151.5,1444.5 C 143.907,1435.06 136.074,1425.73 128,1416.5C 127.149,1411.04 129.315,1407.21 134.5,1405C 137.804,1403.96 139.971,1405.12 141,1408.5C 144.608,1420.49 148.108,1432.49 151.5,1444.5 Z"/></g>
<g><path style="opacity:0.997" fill="#ee3d37" d="M 1999.5,921.5 C 1999.5,922.5 1999.5,923.5 1999.5,924.5C 1983.28,967.718 1972.45,1012.38 1967,1058.5C 1963.67,1084.77 1961.01,1111.1 1959,1137.5C 1956.33,1131.49 1954.66,1125.16 1954,1118.5C 1952.83,1107.53 1952,1096.53 1951.5,1085.5C 1953.43,1052.39 1956.27,1019.39 1960,986.5C 1956.45,991.713 1951.95,995.88 1946.5,999C 1941.27,1000.47 1937.1,998.966 1934,994.5C 1932.11,991.382 1930.77,988.049 1930,984.5C 1929.86,976.771 1929.19,969.105 1928,961.5C 1926.95,959.91 1925.79,958.41 1924.5,957C 1918.31,953.738 1912.64,949.738 1907.5,945C 1876.59,913.868 1852.92,877.868 1836.5,837C 1844.3,815.75 1846.8,793.917 1844,771.5C 1841.03,752.06 1832.2,735.894 1817.5,723C 1804.19,715.027 1792.02,705.527 1781,694.5C 1775.14,687.624 1770.48,679.957 1767,671.5C 1757.59,649.002 1749.59,626.002 1743,602.5C 1739.46,583.967 1737.96,565.3 1738.5,546.5C 1725.68,553.825 1712.35,559.992 1698.5,565C 1689.55,567.491 1680.88,566.824 1672.5,563C 1599.17,511 1525.83,459 1452.5,407C 1405.17,374.994 1356.51,344.994 1306.5,317C 1264.9,317.484 1225.9,307.817 1189.5,288C 1175.81,279.311 1163.64,268.811 1153,256.5C 1142.08,239.344 1141.75,222.011 1152,204.5C 1164.73,190.678 1180.56,184.844 1199.5,187C 1208.83,186.333 1218.17,186.333 1227.5,187C 1233.52,187.73 1239.19,189.563 1244.5,192.5C 1248.97,180.865 1256.97,172.698 1268.5,168C 1295.17,167.11 1321.83,166.276 1348.5,165.5C 1386.46,165.327 1423.46,171.16 1459.5,183C 1556.37,211.651 1639.87,261.818 1710,333.5C 1717.67,342.5 1725.33,351.5 1733,360.5C 1800.67,469.167 1868.33,577.833 1936,686.5C 1942.25,735.471 1948.25,784.471 1954,833.5C 1957.92,874.405 1960.09,915.405 1960.5,956.5C 1965.57,955.218 1969.73,952.551 1973,948.5C 1977.51,939.647 1983.34,931.813 1990.5,925C 1993.31,923.259 1996.31,922.092 1999.5,921.5 Z"/></g>
<g><path style="opacity:1" fill="#ee3d37" d="M 550.5,561.5 C 849.833,561.5 1149.17,561.5 1448.5,561.5C 1448.5,620.833 1448.5,680.167 1448.5,739.5C 1333.5,739.5 1218.5,739.5 1103.5,739.5C 1103.5,1055.5 1103.5,1371.5 1103.5,1687.5C 1034.17,1687.5 964.833,1687.5 895.5,1687.5C 895.5,1371.5 895.5,1055.5 895.5,739.5C 780.5,739.5 665.5,739.5 550.5,739.5C 550.5,680.167 550.5,620.833 550.5,561.5 Z"/></g>
</svg>
