<?xml version="1.0" encoding="UTF-8"?>
<!DOCTYPE svg PUBLIC "-//W3C//DTD SVG 1.1//EN" "http://www.w3.org/Graphics/SVG/1.1/DTD/svg11.dtd">
<svg xmlns="http://www.w3.org/2000/svg" version="1.1" width="200px" height="225px" style="shape-rendering:geometricPrecision; text-rendering:geometricPrecision; image-rendering:optimizeQuality; fill-rule:evenodd; clip-rule:evenodd" xmlns:xlink="http://www.w3.org/1999/xlink">
<g><path style="opacity:0.879" fill="#ed3e37" d="M -0.5,106.5 C -0.5,102.833 -0.5,99.1667 -0.5,95.5C 0.603361,86.355 3.43669,77.6883 8,69.5C 12.6126,64.8874 17.2792,60.2208 22,55.5C 23.4748,52.0791 25.1414,48.7458 27,45.5C 32.9288,40.1157 38.7622,34.6157 44.5,29C 48.211,28.8253 51.8776,28.3253 55.5,27.5C 58.6637,21.581 63.6637,18.7477 70.5,19C 72.9768,17.3573 75.3102,15.524 77.5,13.5C 78.7193,14.2634 79.7193,15.2634 80.5,16.5C 86.1391,13.4308 91.9724,10.7641 98,8.5C 100.912,10.6141 104.079,11.9474 107.5,12.5C 107.846,15.6021 107.179,18.4355 105.5,21C 95.1614,20.7231 85.1614,22.3898 75.5,26C 67.005,30.4132 58.6717,35.0799 50.5,40C 43,46.1667 36.1667,53 30,60.5C 24.927,67.3774 21.5937,75.0441 20,83.5C 19.2919,95.0587 17.4586,106.392 14.5,117.5C 15.5235,122.486 16.0235,127.486 16,132.5C 15.1072,131.289 14.2739,131.289 13.5,132.5C 14.5175,133.852 15.8508,134.852 17.5,135.5C 19.8875,141.943 23.0541,147.943 27,153.5C 36.5295,163.364 46.3629,172.864 56.5,182C 59.025,182.896 61.1917,182.396 63,180.5C 63.7203,182.112 63.5536,183.612 62.5,185C 64.6705,186.586 67.0038,187.92 69.5,189C 80.5779,190.321 91.5779,192.154 102.5,194.5C 107.218,193.714 111.885,192.714 116.5,191.5C 118.206,189.388 119.539,187.055 120.5,184.5C 121.333,185.5 122.167,186.5 123,187.5C 126.325,183.585 129.992,182.919 134,185.5C 135.742,183.027 137.575,183.027 139.5,185.5C 153.161,177.33 166.161,168.164 178.5,158C 179.833,157.667 181.167,157.333 182.5,157C 185,153.167 188.167,150 192,147.5C 188.906,160.016 182.906,171.016 174,180.5C 173.333,184.85 171,187.85 167,189.5C 166.586,189.043 166.086,188.709 165.5,188.5C 164.752,191.295 163.252,191.962 161,190.5C 159.775,190.862 158.609,191.362 157.5,192C 159.784,194.094 160.284,196.26 159,198.5C 157.779,197.728 156.779,196.728 156,195.5C 153,198.5 150,201.5 147,204.5C 146.506,206.134 146.34,207.801 146.5,209.5C 144.5,209.5 142.5,209.5 140.5,209.5C 140.785,211.288 140.452,212.955 139.5,214.5C 137.796,212.959 135.963,211.625 134,210.5C 132.189,211.078 130.355,211.578 128.5,212C 127.881,213.757 126.714,214.924 125,215.5C 122.44,214.47 119.94,213.303 117.5,212C 115.231,211.242 113.064,211.409 111,212.5C 108.932,211.606 106.765,210.94 104.5,210.5C 97.1281,210.21 89.6281,210.543 82,211.5C 75.7618,207.629 69.2618,204.129 62.5,201C 56.5782,200.487 51.2449,198.487 46.5,195C 32.648,195.818 24.8146,189.318 23,175.5C 21.702,174.44 20.5353,173.274 19.5,172C 15.4141,160.995 10.9141,150.162 6,139.5C 4.89241,135.914 4.39241,132.247 4.5,128.5C 5.5,128.5 6.5,128.5 7.5,128.5C 6.59216,120.436 3.92549,113.103 -0.5,106.5 Z"/></g>
<g><path style="opacity:0.881" fill="#ed3e37" d="M 199.5,91.5 C 199.5,92.8333 199.5,94.1667 199.5,95.5C 197.752,101.278 196.419,107.278 195.5,113.5C 194.682,111.892 194.015,110.225 193.5,108.5C 194.738,105.834 194.738,103.168 193.5,100.5C 189.834,95.3226 186.334,89.9893 183,84.5C 185.073,77.8471 183.073,72.8471 177,69.5C 174.739,65.0501 173.072,60.3835 172,55.5C 169.123,56.8302 166.289,56.6636 163.5,55C 154.167,48.3333 144.833,41.6667 135.5,35C 129.167,32.6667 122.833,30.3333 116.5,28C 112.564,24.4922 112.564,21.1589 116.5,18C 138.635,11.9314 157.468,17.4314 173,34.5C 180,45.8333 187,57.1667 194,68.5C 194.868,76.5183 195.868,84.5183 197,92.5C 197.671,91.7476 198.504,91.4142 199.5,91.5 Z"/></g>
<g><path style="opacity:0.9" fill="#ed3e37" d="M 54.5,54.5 C 84.5019,54.3334 114.502,54.5 144.5,55C 145.478,61.4102 145.811,67.9102 145.5,74.5C 133.833,74.5 122.167,74.5 110.5,74.5C 110.667,105.835 110.5,137.168 110,168.5C 103,169.833 96,169.833 89,168.5C 88.5,137.168 88.3334,105.835 88.5,74.5C 76.8744,74.7923 65.2077,74.7923 53.5,74.5C 53.2066,67.7446 53.5399,61.0779 54.5,54.5 Z"/></g>
</svg>
